# xmcd
#
# Track frame offsets: 
#        150
#        13935
#        33457
#        48642
#        59975
#        76272
#        91297
#        111177
#        135017
#        152032
#        194844
#        211181
#        240552
#        273332
#
# Disc length: 3962 seconds
#
# Revision: 0
# Processed by: cddbd v1.5.2PL0 Copyright (c) Steve Scherf et al.
# Submitted via: ExactAudioCopyFreeDBPlugin 1.0
#
DISCID=c30f780e
DTITLE=Raphael Saadiq - Stone Rollin' (Japan Edition)
DYEAR=2011
DGENRE=Soul
TTITLE0=Heart Attack
TTITLE1=Go To Hell
TTITLE2=Radio
TTITLE3=Over You
TTITLE4=Stone Rollin'
TTITLE5=Day Dreams
TTITLE6=Movin' Down The Line
TTITLE7=Just Don't
TTITLE8=Good Man
TTITLE9=The Answer
TTITLE10=100 Yard Dash (Live In Paris)
TTITLE11=Let's Take A Walk (Live In Paris)
TTITLE12=Sure Hope You Mean It (Live In Paris)
TTITLE13=Books (Japan Edition Bonus Track)
EXTD=
EXTT0=
EXTT1=
EXTT2=
EXTT3=
EXTT4=
EXTT5=
EXTT6=
EXTT7=
EXTT8=
EXTT9=
EXTT10=
EXTT11=
EXTT12=
EXTT13=
PLAYORDER=
